<?xml version="1.0"?>
<svg xmlns="http://www.w3.org/2000/svg" height="512px" viewBox="0 0 512 512" width="512px"><g transform="matrix(-1 0 0 1 512 0)"><g id="Corona_Virus_Symptoms_Cough" data-name="Corona Virus Symptoms Cough"><g id="Glyph"><path d="m151.988 272h-15.988a8 8 0 0 1 0-16h15.988a8 8 0 0 1 0 16z" data-original="#000000" class="active-path" data-old_color="#000000" fill="#FF5F66"/><path d="m183.988 344a8 8 0 0 1 -8-8v-16a8 8 0 0 1 16 0v16a8 8 0 0 1 -8 8z" data-original="#000000" class="active-path" data-old_color="#000000" fill="#FF5F66"/><path d="m143.988 320a8 8 0 0 1 -5.657-13.657l16-16a8 8 0 0 1 11.315 11.314l-16 16a7.978 7.978 0 0 1 -5.658 2.343z" data-original="#000000" class="active-path" data-old_color="#000000" fill="#FF5F66"/><path d="m72 456.911v55.089h76.193c-1.12-13.721-2.462-31.229-3.99-53.667 29.657-41.62 22.85-82.609 23.8-90.333a24 24 0 0 0 -48 0v18.053c0 6.7-9.462 8.263-11.589 1.881l-12.088-36.254 9.613-38.456c6.74-26.948-28.242-41.865-33.429-28.033-24.749 67.323-25.278 64.392-24.305 68.609z" data-original="#000000" class="active-path" data-old_color="#000000" fill="#FF5F66"/><path d="m393.018 331.2c-14.4 20.8-129 44.8-150.946 40.546-20.13 32.141-44.317 83.2-41.884 140.254h87.83v-71.15c0-30.731 24.4-56.375 55.132-56.843a56.061 56.061 0 0 1 56.868 55.993v72h47.811l.189-28.757c.889-48.307-16-107.243-55-152.043z" data-original="#000000" class="active-path" data-old_color="#000000" fill="#FF5F66"/><path d="m453.986 64.079c-9.145-19.7-23.886-31.627-41.857-34.031-45.623-85.669-234.034 43.933-260.775-3.1-3.361-7.228-14.51-5.426-15.116 3.051-2.622 36.694 8.011 85.568 39.752 108.116v49.711c-23.021 30.98-26.985 31.455-25.872 37.6 1.087 6 5.716 5.731 27.085 19.792l5.055 16.842a8 8 0 0 0 8.8 5.619c17.573-2.533 20.2 1.784 22.941 8.373l-17.939 8.962a8 8 0 0 0 -4.086 9.457 38.675 38.675 0 0 0 36.792 27.4c7.729 0 10.889-1.844 35.22-7.624h.014v26.01c-1.936 2.325-5.145 6.316-9.121 11.745 65.7-5.922 117.885-32.028 137.121-42.873v-11.795c.086-.066.143-.13.143-.189 32.749-42.333 55.482-87.782 65.793-131.615 9.357-39.774 7.953-75.803-3.95-101.451z" data-original="#000000" class="active-path" data-old_color="#000000" fill="#FF5F66"/></g></g></g> </svg>
